@startuml Entertaiment

entity Users {
  * id : SERIAL <<PK>>
  ---
  * slug :	VARCHAR(50)
  * username : VARCHAR(20) <<UNIQUE>>
  f_name :	VARCHAR(20)
  m_name :	VARCHAR(20)
  l_name :	VARCHAR(20)
  email_encrypt :	VARCHAR(255)
  key_email :	VARCHAR(255)
  phone_encrypt :	VARCHAR(255)
  key_phone :	VARCHAR(255)
  bio :		TEXT
  birthdate : DATE
  * gender :	BOOLEAN <<TRUE is MAN>>
  profile_pic_url : VARCHAR(255)
  bg_pic_url : VARCHAR(255)
  * created_at : TIMESTAMP
  * updated_at : TIMESTAMP
  deleted_at : TIMESTAMP
  * current_pass_hash :	VARCHAR(255)
  * before_pass_hash :	VARCHAR(255)
  * last_updated_pass_at :	TIMESTAMP
  * pass_salt	: VARCHAR(255)
}
entity Categories {
  * id : SERIAL <<PK>>
  ---
  * dummy
  ---
  * user_id INT <<FK>>
}
entity Activities {
  * id : SERIAL <<PK>>
  ---
  * dummy
    ---
  * user_id INT <<FK>>
  * cat_id INT <<FK>>
}

entity Do {
  * user_id : INT
  * act_id : INT
  ---
  * dummy
}

Users ||--o{ Categories : Created_Cat
Users ||--o{ Activities : Created_Act
Users }o--o{ Activities : Do
Categories ||--|{ Activities : Categorized

@enduml